<svg height="1614" width="720" xmlns="http://www.w3.org/2000/svg">
<rect height="1614" fill="#555" width="720"></rect>
<text fill="#7f7" font-family="Courier New" font-size="12" xml:space="preserve">
<tspan x="10" y="26">17 megabytes installed</tspan>
<tspan x="10" y="42"></tspan>
<tspan x="10" y="58">node_modules</tspan>
<tspan x="10" y="74">└─┬ node-jsdom@3.1.5 </tspan>
<tspan x="10" y="90">  ├── acorn@0.11.0 </tspan>
<tspan x="10" y="106">  ├─┬ acorn-globals@1.0.9 </tspan>
<tspan x="10" y="122">  │ └── acorn@2.7.0 </tspan>
<tspan x="10" y="138">  ├── browser-request@0.3.3 </tspan>
<tspan x="10" y="154">  ├─┬ contextify@0.1.15 </tspan>
<tspan x="10" y="170">  │ ├── bindings@1.2.1 </tspan>
<tspan x="10" y="186">  │ └── nan@2.6.2 </tspan>
<tspan x="10" y="202">  ├── cssom@0.3.2 </tspan>
<tspan x="10" y="218">  ├── cssstyle@0.2.37 </tspan>
<tspan x="10" y="234">  ├─┬ escodegen@1.8.1 </tspan>
<tspan x="10" y="250">  │ ├── esprima@2.7.3 </tspan>
<tspan x="10" y="266">  │ ├── estraverse@1.9.3 </tspan>
<tspan x="10" y="282">  │ ├── esutils@2.0.2 </tspan>
<tspan x="10" y="298">  │ ├─┬ optionator@0.8.2 </tspan>
<tspan x="10" y="314">  │ │ ├── deep-is@0.1.3 </tspan>
<tspan x="10" y="330">  │ │ ├── fast-levenshtein@2.0.6 </tspan>
<tspan x="10" y="346">  │ │ ├── levn@0.3.0 </tspan>
<tspan x="10" y="362">  │ │ ├── prelude-ls@1.1.2 </tspan>
<tspan x="10" y="378">  │ │ ├── type-check@0.3.2 </tspan>
<tspan x="10" y="394">  │ │ └── wordwrap@1.0.0 </tspan>
<tspan x="10" y="410">  │ └─┬ source-map@0.2.0 </tspan>
<tspan x="10" y="426">  │   └── amdefine@1.0.1 </tspan>
<tspan x="10" y="442">  ├─┬ htmlparser2@3.9.2 </tspan>
<tspan x="10" y="458">  │ ├── domelementtype@1.3.0 </tspan>
<tspan x="10" y="474">  │ ├── domhandler@2.3.0 </tspan>
<tspan x="10" y="490">  │ ├─┬ domutils@1.5.1 </tspan>
<tspan x="10" y="506">  │ │ └─┬ dom-serializer@0.1.0 </tspan>
<tspan x="10" y="522">  │ │   └── domelementtype@1.1.3 </tspan>
<tspan x="10" y="538">  │ ├── entities@1.1.1 </tspan>
<tspan x="10" y="554">  │ ├── inherits@2.0.3 </tspan>
<tspan x="10" y="570">  │ └─┬ readable-stream@2.2.9 </tspan>
<tspan x="10" y="586">  │   ├── buffer-shims@1.0.0 </tspan>
<tspan x="10" y="602">  │   ├── core-util-is@1.0.2 </tspan>
<tspan x="10" y="618">  │   ├── isarray@1.0.0 </tspan>
<tspan x="10" y="634">  │   ├── process-nextick-args@1.0.7 </tspan>
<tspan x="10" y="650">  │   ├── string_decoder@1.0.0 </tspan>
<tspan x="10" y="666">  │   └── util-deprecate@1.0.2 </tspan>
<tspan x="10" y="682">  ├── nwmatcher@1.3.9 </tspan>
<tspan x="10" y="698">  ├── parse5@1.5.1 </tspan>
<tspan x="10" y="714">  ├─┬ request@2.81.0 </tspan>
<tspan x="10" y="730">  │ ├── aws-sign2@0.6.0 </tspan>
<tspan x="10" y="746">  │ ├── aws4@1.6.0 </tspan>
<tspan x="10" y="762">  │ ├── caseless@0.12.0 </tspan>
<tspan x="10" y="778">  │ ├─┬ combined-stream@1.0.5 </tspan>
<tspan x="10" y="794">  │ │ └── delayed-stream@1.0.0 </tspan>
<tspan x="10" y="810">  │ ├── extend@3.0.0 </tspan>
<tspan x="10" y="826">  │ ├── forever-agent@0.6.1 </tspan>
<tspan x="10" y="842">  │ ├─┬ form-data@2.1.4 </tspan>
<tspan x="10" y="858">  │ │ └── asynckit@0.4.0 </tspan>
<tspan x="10" y="874">  │ ├─┬ har-validator@4.2.1 </tspan>
<tspan x="10" y="890">  │ │ ├─┬ ajv@4.11.7 </tspan>
<tspan x="10" y="906">  │ │ │ ├── co@4.6.0 </tspan>
<tspan x="10" y="922">  │ │ │ └─┬ json-stable-stringify@1.0.1 </tspan>
<tspan x="10" y="938">  │ │ │   └── jsonify@0.0.0 </tspan>
<tspan x="10" y="954">  │ │ └── har-schema@1.0.5 </tspan>
<tspan x="10" y="970">  │ ├─┬ hawk@3.1.3 </tspan>
<tspan x="10" y="986">  │ │ ├── boom@2.10.1 </tspan>
<tspan x="10" y="1002">  │ │ ├── cryptiles@2.0.5 </tspan>
<tspan x="10" y="1018">  │ │ ├── hoek@2.16.3 </tspan>
<tspan x="10" y="1034">  │ │ └── sntp@1.0.9 </tspan>
<tspan x="10" y="1050">  │ ├─┬ http-signature@1.1.1 </tspan>
<tspan x="10" y="1066">  │ │ ├── assert-plus@0.2.0 </tspan>
<tspan x="10" y="1082">  │ │ ├─┬ jsprim@1.4.0 </tspan>
<tspan x="10" y="1098">  │ │ │ ├── assert-plus@1.0.0 </tspan>
<tspan x="10" y="1114">  │ │ │ ├── extsprintf@1.0.2 </tspan>
<tspan x="10" y="1130">  │ │ │ ├── json-schema@0.2.3 </tspan>
<tspan x="10" y="1146">  │ │ │ └── verror@1.3.6 </tspan>
<tspan x="10" y="1162">  │ │ └─┬ sshpk@1.13.0 </tspan>
<tspan x="10" y="1178">  │ │   ├── asn1@0.2.3 </tspan>
<tspan x="10" y="1194">  │ │   ├── assert-plus@1.0.0 </tspan>
<tspan x="10" y="1210">  │ │   ├── bcrypt-pbkdf@1.0.1 </tspan>
<tspan x="10" y="1226">  │ │   ├─┬ dashdash@1.14.1 </tspan>
<tspan x="10" y="1242">  │ │   │ └── assert-plus@1.0.0 </tspan>
<tspan x="10" y="1258">  │ │   ├── ecc-jsbn@0.1.1 </tspan>
<tspan x="10" y="1274">  │ │   ├─┬ getpass@0.1.6 </tspan>
<tspan x="10" y="1290">  │ │   │ └── assert-plus@1.0.0 </tspan>
<tspan x="10" y="1306">  │ │   ├── jodid25519@1.0.2 </tspan>
<tspan x="10" y="1322">  │ │   ├── jsbn@0.1.1 </tspan>
<tspan x="10" y="1338">  │ │   └── tweetnacl@0.14.5 </tspan>
<tspan x="10" y="1354">  │ ├── is-typedarray@1.0.0 </tspan>
<tspan x="10" y="1370">  │ ├── isstream@0.1.2 </tspan>
<tspan x="10" y="1386">  │ ├── json-stringify-safe@5.0.1 </tspan>
<tspan x="10" y="1402">  │ ├─┬ mime-types@2.1.15 </tspan>
<tspan x="10" y="1418">  │ │ └── mime-db@1.27.0 </tspan>
<tspan x="10" y="1434">  │ ├── oauth-sign@0.8.2 </tspan>
<tspan x="10" y="1450">  │ ├── performance-now@0.2.0 </tspan>
<tspan x="10" y="1466">  │ ├── qs@6.4.0 </tspan>
<tspan x="10" y="1482">  │ ├── safe-buffer@5.0.1 </tspan>
<tspan x="10" y="1498">  │ ├── stringstream@0.0.5 </tspan>
<tspan x="10" y="1514">  │ ├─┬ tough-cookie@2.3.2 </tspan>
<tspan x="10" y="1530">  │ │ └── punycode@1.4.1 </tspan>
<tspan x="10" y="1546">  │ ├── tunnel-agent@0.6.0 </tspan>
<tspan x="10" y="1562">  │ └── uuid@3.0.1 </tspan>
<tspan x="10" y="1578">  ├── xml-name-validator@1.0.0 </tspan>
<tspan x="10" y="1594">  └── xmlhttprequest@1.8.0</tspan>
</text>
</svg>
